# xmcd CD database file
#
# Track frame offsets:
#	150
#	20930
#	34900
#	60187
#	72070
#	100442
#	117500
#	137562
#	157987
#	199600
#
# Disc length: 3069 seconds
#
# Revision: 2
# Processed by: cddbd v1.5.1PL0 Copyright (c) Steve Scherf et al.
# Submitted via: CDex 1.51
#
DISCID=860bfb0a
DTITLE=溝口肇 - 水の中のオアシス
DYEAR=1900
DGENRE=New Age
TTITLE0=図書館音楽
TTITLE1=摩天楼と恐竜
TTITLE2=パノラマ
TTITLE3=P・e・a・c・e
TTITLE4=笑う島
TTITLE5=夏時間
TTITLE6=Bruce
TTITLE7=窓の下の南極
TTITLE8=ゲルニカ
TTITLE9=帰水空間
EXTD=
EXTT0=
EXTT1=
EXTT2=
EXTT3=
EXTT4=
EXTT5=
EXTT6=
EXTT7=
EXTT8=
EXTT9=
PLAYORDER=
